<?xml version="1.0" standalone="no"?>
<!DOCTYPE svg PUBLIC "-//W3C//DTD SVG 20010904//EN"
 "http://www.w3.org/TR/2001/REC-SVG-20010904/DTD/svg10.dtd">
<svg version="1.0" xmlns="http://www.w3.org/2000/svg"
 width="260.000000pt" height="260.000000pt" viewBox="0 0 260.000000 260.000000"
 preserveAspectRatio="xMidYMid meet">
<metadata>
Created by potrace 1.11, written by Peter Selinger 2001-2013
</metadata>
<g transform="translate(0.000000,260.000000) scale(0.100000,-0.100000)"
fill="#000000" stroke="none">
<path d="M619 1948 c-5 -13 -106 -270 -223 -573 l-212 -550 134 -3 c74 -1 137
-1 139 2 3 2 19 44 38 93 l33 88 249 3 249 2 34 -95 34 -95 138 0 c76 0 138 2
138 4 0 3 -88 234 -196 513 -108 279 -206 535 -219 568 l-23 60 -151 3 c-149
2 -151 2 -162 -20z m252 -478 l86 -240 -180 0 c-167 0 -179 1 -172 18 4 9 43
117 87 240 45 122 84 222 87 222 3 0 45 -108 92 -240z"/>
<path d="M1567 1963 c-4 -3 -7 -262 -7 -575 l0 -568 125 0 125 0 2 238 3 237
273 0 272 0 0 108 0 107 -275 0 -275 0 0 120 0 120 279 0 c154 0 282 3 284 8
2 4 2 53 -1 110 l-4 102 -397 0 c-219 0 -401 -3 -404 -7z"/>
</g>
</svg>
