<svg version="1.0" xmlns="http://www.w3.org/2000/svg" width="346.667" height="346.667" viewBox="0 0 260 260"><path d="M61.9 65.2c-.5 1.3-10.6 27-22.3 57.3l-21.2 55 13.4.3c7.4.1 13.7.1 13.9-.2.3-.2 1.9-4.4 3.8-9.3l3.3-8.8 24.9-.3 24.9-.2 3.4 9.5 3.4 9.5h13.8c7.6 0 13.8-.2 13.8-.4 0-.3-8.8-23.4-19.6-51.3S96.8 72.8 95.5 69.5l-2.3-6-15.1-.3c-14.9-.2-15.1-.2-16.2 2zM87.1 113l8.6 24h-18c-16.7 0-17.9-.1-17.2-1.8.4-.9 4.3-11.7 8.7-24C73.7 99 77.6 89 77.9 89c.3 0 4.5 10.8 9.2 24zm69.6-49.3c-.4.3-.7 26.2-.7 57.5V178h25l.2-23.8.3-23.7H236V109h-55V85h27.9c15.4 0 28.2-.3 28.4-.8.2-.4.2-5.3-.1-11l-.4-10.2h-39.7c-21.9 0-40.1.3-40.4.7z"/></svg>